<svg width="33" height="78" viewBox="0 0 33 78" fill="none" xmlns="http://www.w3.org/2000/svg">
<mask id="path-1-outside-1_106_8187" maskUnits="userSpaceOnUse" x="0" y="0" width="33" height="78" fill="black">
<rect fill="white" width="33" height="78"/>
<path d="M29.5332 3.71094V75H16.9844V19.2383L3.11719 24.7559V14.1113L28.0684 3.71094H29.5332Z"/>
</mask>
<path d="M29.5332 3.71094V75H16.9844V19.2383L3.11719 24.7559V14.1113L28.0684 3.71094H29.5332Z" fill="black"/>
<path d="M29.5332 3.71094H32.5332V0.710938H29.5332V3.71094ZM29.5332 75V78H32.5332V75H29.5332ZM16.9844 75H13.9844V78H16.9844V75ZM16.9844 19.2383H19.9844V14.8159L15.8753 16.4508L16.9844 19.2383ZM3.11719 24.7559H0.117188V29.1783L4.22628 27.5433L3.11719 24.7559ZM3.11719 14.1113L1.96296 11.3423L0.117188 12.1116V14.1113H3.11719ZM28.0684 3.71094V0.710938H27.4681L26.9141 0.941868L28.0684 3.71094ZM26.5332 3.71094V75H32.5332V3.71094H26.5332ZM29.5332 72H16.9844V78H29.5332V72ZM19.9844 75V19.2383H13.9844V75H19.9844ZM15.8753 16.4508L2.00809 21.9684L4.22628 27.5433L18.0935 22.0257L15.8753 16.4508ZM6.11719 24.7559V14.1113H0.117188V24.7559H6.11719ZM4.27142 16.8804L29.2226 6.48001L26.9141 0.941868L1.96296 11.3423L4.27142 16.8804ZM28.0684 6.71094H29.5332V0.710938H28.0684V6.71094Z" fill="white" mask="url(#path-1-outside-1_106_8187)"/>
</svg>
