<svg width="49" height="79" viewBox="0 0 49 79" fill="none" xmlns="http://www.w3.org/2000/svg">
<mask id="path-1-outside-1_106_8190" maskUnits="userSpaceOnUse" x="0" y="0" width="49" height="79" fill="black">
<rect fill="white" width="49" height="79"/>
<path d="M45.6426 65.5508V76H4.23633V67.0156L23.5723 42.2109C25.5254 39.5417 27.0553 37.1979 28.1621 35.1797C29.2689 33.1615 30.0501 31.3548 30.5059 29.7598C30.9616 28.1322 31.1895 26.5697 31.1895 25.0723C31.1895 22.9564 30.9128 21.1009 30.3594 19.5059C29.806 17.8783 28.9922 16.625 27.918 15.7461C26.8763 14.8346 25.5905 14.3789 24.0605 14.3789C22.14 14.3789 20.5612 14.916 19.3242 15.9902C18.0872 17.0645 17.1595 18.5456 16.541 20.4336C15.9551 22.3216 15.6621 24.4701 15.6621 26.8789H3.11328C3.11328 22.7122 3.94336 18.8874 5.60352 15.4043C7.29622 11.8887 9.70508 9.08919 12.8301 7.00586C15.9876 4.92253 19.7799 3.88086 24.207 3.88086C28.4388 3.88086 32.0033 4.69466 34.9004 6.32227C37.7975 7.94987 39.9948 10.2448 41.4922 13.207C43.0221 16.1693 43.7871 19.7012 43.7871 23.8027C43.7871 26.0814 43.4779 28.3275 42.8594 30.541C42.2409 32.7546 41.3783 34.9518 40.2715 37.1328C39.1647 39.3138 37.8138 41.5273 36.2188 43.7734C34.6237 45.987 32.8496 48.2656 30.8965 50.6094L20.1543 65.5508H45.6426Z"/>
</mask>
<path d="M45.6426 65.5508V76H4.23633V67.0156L23.5723 42.2109C25.5254 39.5417 27.0553 37.1979 28.1621 35.1797C29.2689 33.1615 30.0501 31.3548 30.5059 29.7598C30.9616 28.1322 31.1895 26.5697 31.1895 25.0723C31.1895 22.9564 30.9128 21.1009 30.3594 19.5059C29.806 17.8783 28.9922 16.625 27.918 15.7461C26.8763 14.8346 25.5905 14.3789 24.0605 14.3789C22.14 14.3789 20.5612 14.916 19.3242 15.9902C18.0872 17.0645 17.1595 18.5456 16.541 20.4336C15.9551 22.3216 15.6621 24.4701 15.6621 26.8789H3.11328C3.11328 22.7122 3.94336 18.8874 5.60352 15.4043C7.29622 11.8887 9.70508 9.08919 12.8301 7.00586C15.9876 4.92253 19.7799 3.88086 24.207 3.88086C28.4388 3.88086 32.0033 4.69466 34.9004 6.32227C37.7975 7.94987 39.9948 10.2448 41.4922 13.207C43.0221 16.1693 43.7871 19.7012 43.7871 23.8027C43.7871 26.0814 43.4779 28.3275 42.8594 30.541C42.2409 32.7546 41.3783 34.9518 40.2715 37.1328C39.1647 39.3138 37.8138 41.5273 36.2188 43.7734C34.6237 45.987 32.8496 48.2656 30.8965 50.6094L20.1543 65.5508H45.6426Z" fill="black"/>
<path d="M45.6426 65.5508H48.6426V62.5508H45.6426V65.5508ZM45.6426 76V79H48.6426V76H45.6426ZM4.23633 76H1.23633V79H4.23633V76ZM4.23633 67.0156L1.87028 65.1712L1.23633 65.9845V67.0156H4.23633ZM23.5723 42.2109L25.9383 44.0553L25.9664 44.0193L25.9934 43.9825L23.5723 42.2109ZM30.5059 29.7598L33.3904 30.5839L33.3926 30.5763L33.3948 30.5687L30.5059 29.7598ZM30.3594 19.5059L27.5191 20.4716L27.5221 20.4804L27.5251 20.4892L30.3594 19.5059ZM27.918 15.7461L25.9425 18.0038L25.9798 18.0365L26.0183 18.068L27.918 15.7461ZM16.541 20.4336L13.6901 19.4997L13.6828 19.522L13.6758 19.5444L16.541 20.4336ZM15.6621 26.8789V29.8789H18.6621V26.8789H15.6621ZM3.11328 26.8789H0.113281V29.8789H3.11328V26.8789ZM5.60352 15.4043L2.90049 14.1028L2.8954 14.1135L5.60352 15.4043ZM12.8301 7.00586L11.1779 4.50179L11.1719 4.50574L11.166 4.50971L12.8301 7.00586ZM41.4922 13.207L38.8148 14.5604L38.8207 14.5721L38.8267 14.5837L41.4922 13.207ZM36.2188 43.7734L38.6527 45.5273L38.6587 45.5189L38.6647 45.5104L36.2188 43.7734ZM30.8965 50.6094L28.5918 48.6888L28.5232 48.7711L28.4607 48.8581L30.8965 50.6094ZM20.1543 65.5508L17.7185 63.7995L14.3026 68.5508H20.1543V65.5508ZM42.6426 65.5508V76H48.6426V65.5508H42.6426ZM45.6426 73H4.23633V79H45.6426V73ZM7.23633 76V67.0156H1.23633V76H7.23633ZM6.60238 68.86L25.9383 44.0553L21.2062 40.3665L1.87028 65.1712L6.60238 68.86ZM25.9934 43.9825C27.9932 41.2493 29.6027 38.7919 30.7925 36.6222L25.5317 33.7372C24.508 35.604 23.0576 37.834 21.1512 40.4394L25.9934 43.9825ZM30.7925 36.6222C31.9687 34.4774 32.8548 32.4586 33.3904 30.5839L27.6213 28.9356C27.2455 30.251 26.569 31.8455 25.5317 33.7372L30.7925 36.6222ZM33.3948 30.5687C33.9149 28.711 34.1895 26.8756 34.1895 25.0723H28.1895C28.1895 26.2637 28.0083 27.5533 27.617 28.9509L33.3948 30.5687ZM34.1895 25.0723C34.1895 22.7028 33.8805 20.5023 33.1936 18.5225L27.5251 20.4892C27.945 21.6995 28.1895 23.21 28.1895 25.0723H34.1895ZM33.1997 18.5401C32.5087 16.5079 31.419 14.7344 29.8177 13.4242L26.0183 18.068C26.5654 18.5156 27.1033 19.2486 27.5191 20.4716L33.1997 18.5401ZM29.8935 13.4884C28.246 12.0468 26.2348 11.3789 24.0605 11.3789V17.3789C24.9462 17.3789 25.5066 17.6225 25.9425 18.0038L29.8935 13.4884ZM24.0605 11.3789C21.5487 11.3789 19.2316 12.0973 17.3572 13.7251L21.2913 18.2553C21.8908 17.7347 22.7313 17.3789 24.0605 17.3789V11.3789ZM17.3572 13.7251C15.6314 15.2238 14.4415 17.2059 13.6901 19.4997L19.3919 21.3675C19.8775 19.8852 20.543 18.9051 21.2913 18.2553L17.3572 13.7251ZM13.6758 19.5444C12.9835 21.7752 12.6621 24.2319 12.6621 26.8789H18.6621C18.6621 24.7082 18.9267 22.868 19.4062 21.3228L13.6758 19.5444ZM15.6621 23.8789H3.11328V29.8789H15.6621V23.8789ZM6.11328 26.8789C6.11328 23.1226 6.85867 19.7435 8.31163 16.6951L2.8954 14.1135C1.02805 18.0313 0.113281 22.3019 0.113281 26.8789H6.11328ZM8.30652 16.7057C9.77563 13.6545 11.8341 11.2754 14.4942 9.50201L11.166 4.50971C7.5761 6.90296 4.81681 10.1228 2.90051 14.1028L8.30652 16.7057ZM14.4822 9.50993C17.0706 7.80211 20.2652 6.88086 24.207 6.88086V0.880859C19.2947 0.880859 14.9046 2.04294 11.1779 4.50179L14.4822 9.50993ZM24.207 6.88086C28.062 6.88086 31.0892 7.62214 33.431 8.93778L36.3698 3.70675C32.9174 1.76719 28.8156 0.880859 24.207 0.880859V6.88086ZM33.431 8.93778C35.8098 10.2742 37.5863 12.1301 38.8148 14.5604L44.1696 11.8536C42.4033 8.35951 39.7852 5.62555 36.3698 3.70675L33.431 8.93778ZM38.8267 14.5837C40.0919 17.0334 40.7871 20.0716 40.7871 23.8027H46.7871C46.7871 19.3307 45.9524 15.3052 44.1577 11.8304L38.8267 14.5837ZM40.7871 23.8027C40.7871 25.8061 40.5157 27.7807 39.97 29.7337L45.7487 31.3483C46.44 28.8743 46.7871 26.3566 46.7871 23.8027H40.7871ZM39.97 29.7337C39.4079 31.7455 38.6194 33.759 37.5962 35.7752L42.9467 38.4904C44.1371 36.1447 45.0739 33.7636 45.7487 31.3483L39.97 29.7337ZM37.5962 35.7752C36.5642 37.809 35.2927 39.8962 33.7728 42.0364L38.6647 45.5104C40.3349 43.1585 41.7652 40.8186 42.9467 38.4904L37.5962 35.7752ZM33.7848 42.0196C32.2354 44.1699 30.5051 46.3929 28.5918 48.6888L33.2011 52.5299C35.1941 50.1384 37.012 47.8041 38.6527 45.5273L33.7848 42.0196ZM28.4607 48.8581L17.7185 63.7995L22.5901 67.302L33.3323 52.3606L28.4607 48.8581ZM20.1543 68.5508H45.6426V62.5508H20.1543V68.5508Z" fill="white" mask="url(#path-1-outside-1_106_8190)"/>
</svg>
