<svg width="48" height="80" viewBox="0 0 48 80" fill="none" xmlns="http://www.w3.org/2000/svg">
<mask id="path-1-outside-1_106_8193" maskUnits="userSpaceOnUse" x="0" y="0" width="48" height="80" fill="black">
<rect fill="white" width="48" height="80"/>
<path d="M16.248 34.5938H22.6934C24.5488 34.5938 26.0951 34.1706 27.332 33.3242C28.569 32.4453 29.4805 31.2246 30.0664 29.6621C30.6523 28.0996 30.9453 26.293 30.9453 24.2422C30.9453 22.2565 30.6686 20.5312 30.1152 19.0664C29.5618 17.569 28.7318 16.4134 27.625 15.5996C26.5508 14.7858 25.1673 14.3789 23.4746 14.3789C22.14 14.3789 20.903 14.737 19.7637 15.4531C18.6243 16.1693 17.7292 17.2109 17.0781 18.5781C16.4271 19.9128 16.1016 21.4915 16.1016 23.3145H3.60156C3.60156 19.4733 4.44792 16.1042 6.14062 13.207C7.86589 10.2773 10.2096 7.9987 13.1719 6.37109C16.1341 4.71094 19.4707 3.88086 23.1816 3.88086C27.1855 3.88086 30.7012 4.64583 33.7285 6.17578C36.7884 7.70573 39.1647 9.98438 40.8574 13.0117C42.5827 16.0065 43.4453 19.7174 43.4453 24.1445C43.4453 26.293 43.0384 28.4089 42.2246 30.4922C41.4434 32.5755 40.2552 34.4798 38.6602 36.2051C37.0651 37.8978 35.0957 39.2487 32.752 40.2578C30.4408 41.2669 27.7552 41.7715 24.6953 41.7715H16.248V34.5938ZM16.248 44.8477V37.8164H24.6953C28.1784 37.8164 31.1569 38.2721 33.6309 39.1836C36.1374 40.0951 38.1719 41.3809 39.7344 43.041C41.3294 44.7012 42.485 46.638 43.2012 48.8516C43.9499 51.0651 44.3242 53.474 44.3242 56.0781C44.3242 59.3984 43.7871 62.3607 42.7129 64.9648C41.6712 67.5365 40.1738 69.7174 38.2207 71.5078C36.3001 73.2982 34.054 74.6654 31.4824 75.6094C28.9434 76.5208 26.1764 76.9766 23.1816 76.9766C20.5775 76.9766 18.0547 76.5697 15.6133 75.7559C13.2044 74.9095 11.0397 73.6562 9.11914 71.9961C7.23112 70.3034 5.73372 68.1875 4.62695 65.6484C3.55273 63.0768 3.01562 60.082 3.01562 56.6641H15.5156C15.5156 58.5846 15.8574 60.2936 16.541 61.791C17.2246 63.2559 18.1523 64.4115 19.3242 65.2578C20.4961 66.1042 21.8633 66.5273 23.4258 66.5273C25.151 66.5273 26.6322 66.1042 27.8691 65.2578C29.1387 64.4115 30.099 63.207 30.75 61.6445C31.4336 60.0495 31.7754 58.1615 31.7754 55.9805C31.7754 53.3438 31.4173 51.2116 30.7012 49.584C29.985 47.9564 28.9434 46.7682 27.5762 46.0195C26.2415 45.2383 24.6139 44.8477 22.6934 44.8477H16.248Z"/>
</mask>
<path d="M16.248 34.5938H22.6934C24.5488 34.5938 26.0951 34.1706 27.332 33.3242C28.569 32.4453 29.4805 31.2246 30.0664 29.6621C30.6523 28.0996 30.9453 26.293 30.9453 24.2422C30.9453 22.2565 30.6686 20.5312 30.1152 19.0664C29.5618 17.569 28.7318 16.4134 27.625 15.5996C26.5508 14.7858 25.1673 14.3789 23.4746 14.3789C22.14 14.3789 20.903 14.737 19.7637 15.4531C18.6243 16.1693 17.7292 17.2109 17.0781 18.5781C16.4271 19.9128 16.1016 21.4915 16.1016 23.3145H3.60156C3.60156 19.4733 4.44792 16.1042 6.14062 13.207C7.86589 10.2773 10.2096 7.9987 13.1719 6.37109C16.1341 4.71094 19.4707 3.88086 23.1816 3.88086C27.1855 3.88086 30.7012 4.64583 33.7285 6.17578C36.7884 7.70573 39.1647 9.98438 40.8574 13.0117C42.5827 16.0065 43.4453 19.7174 43.4453 24.1445C43.4453 26.293 43.0384 28.4089 42.2246 30.4922C41.4434 32.5755 40.2552 34.4798 38.6602 36.2051C37.0651 37.8978 35.0957 39.2487 32.752 40.2578C30.4408 41.2669 27.7552 41.7715 24.6953 41.7715H16.248V34.5938ZM16.248 44.8477V37.8164H24.6953C28.1784 37.8164 31.1569 38.2721 33.6309 39.1836C36.1374 40.0951 38.1719 41.3809 39.7344 43.041C41.3294 44.7012 42.485 46.638 43.2012 48.8516C43.9499 51.0651 44.3242 53.474 44.3242 56.0781C44.3242 59.3984 43.7871 62.3607 42.7129 64.9648C41.6712 67.5365 40.1738 69.7174 38.2207 71.5078C36.3001 73.2982 34.054 74.6654 31.4824 75.6094C28.9434 76.5208 26.1764 76.9766 23.1816 76.9766C20.5775 76.9766 18.0547 76.5697 15.6133 75.7559C13.2044 74.9095 11.0397 73.6562 9.11914 71.9961C7.23112 70.3034 5.73372 68.1875 4.62695 65.6484C3.55273 63.0768 3.01562 60.082 3.01562 56.6641H15.5156C15.5156 58.5846 15.8574 60.2936 16.541 61.791C17.2246 63.2559 18.1523 64.4115 19.3242 65.2578C20.4961 66.1042 21.8633 66.5273 23.4258 66.5273C25.151 66.5273 26.6322 66.1042 27.8691 65.2578C29.1387 64.4115 30.099 63.207 30.75 61.6445C31.4336 60.0495 31.7754 58.1615 31.7754 55.9805C31.7754 53.3438 31.4173 51.2116 30.7012 49.584C29.985 47.9564 28.9434 46.7682 27.5762 46.0195C26.2415 45.2383 24.6139 44.8477 22.6934 44.8477H16.248Z" fill="black"/>
<path d="M16.248 34.5938V31.5938H13.248V34.5938H16.248ZM27.332 33.3242L29.0261 35.8001L29.048 35.7851L29.0697 35.7698L27.332 33.3242ZM30.1152 19.0664L27.3013 20.1064L27.305 20.1165L27.3088 20.1266L30.1152 19.0664ZM27.625 15.5996L25.8134 17.9909L25.8305 18.0038L25.8478 18.0166L27.625 15.5996ZM17.0781 18.5781L19.7744 19.8934L19.7806 19.8807L19.7867 19.8679L17.0781 18.5781ZM16.1016 23.3145V26.3145H19.1016V23.3145H16.1016ZM3.60156 23.3145H0.601562V26.3145H3.60156V23.3145ZM6.14062 13.207L3.55555 11.6847L3.55034 11.6936L6.14062 13.207ZM13.1719 6.37109L14.6165 9.00035L14.6276 8.99428L14.6386 8.98812L13.1719 6.37109ZM33.7285 6.17578L32.3754 8.8533L32.3869 8.85906L33.7285 6.17578ZM40.8574 13.0117L38.2389 14.4758L38.2483 14.4926L38.2579 14.5093L40.8574 13.0117ZM42.2246 30.4922L39.4302 29.4006L39.4228 29.4197L39.4156 29.4388L42.2246 30.4922ZM38.6602 36.2051L40.8435 38.2625L40.8533 38.2521L40.863 38.2416L38.6602 36.2051ZM32.752 40.2578L31.5656 37.5024L31.5585 37.5054L31.5515 37.5085L32.752 40.2578ZM16.248 41.7715H13.248V44.7715H16.248V41.7715ZM16.248 44.8477H13.248V47.8477H16.248V44.8477ZM16.248 37.8164V34.8164H13.248V37.8164H16.248ZM33.6309 39.1836L32.5937 41.9986L32.6056 42.003L33.6309 39.1836ZM39.7344 43.041L37.5498 45.0971L37.5604 45.1084L37.5711 45.1195L39.7344 43.041ZM43.2012 48.8516L40.3468 49.775L40.353 49.7939L40.3593 49.8128L43.2012 48.8516ZM42.7129 64.9648L39.9396 63.8209L39.9359 63.8297L39.9323 63.8385L42.7129 64.9648ZM38.2207 71.5078L36.1935 69.2963L36.1843 69.3048L36.1751 69.3134L38.2207 71.5078ZM31.4824 75.6094L32.496 78.433L32.5061 78.4293L32.5162 78.4256L31.4824 75.6094ZM15.6133 75.7559L14.6188 78.5862L14.6416 78.5943L14.6646 78.6019L15.6133 75.7559ZM9.11914 71.9961L7.11651 74.2298L7.13673 74.2479L7.15728 74.2657L9.11914 71.9961ZM4.62695 65.6484L1.85876 66.8048L1.86765 66.826L1.87687 66.8472L4.62695 65.6484ZM3.01562 56.6641V53.6641H0.015625V56.6641H3.01562ZM15.5156 56.6641H18.5156V53.6641H15.5156V56.6641ZM16.541 61.791L13.812 63.0369L13.8172 63.0483L13.8225 63.0597L16.541 61.791ZM27.8691 65.2578L26.205 62.7617L26.19 62.7717L26.1751 62.7819L27.8691 65.2578ZM30.75 61.6445L27.9926 60.4628L27.9866 60.4767L27.9808 60.4907L30.75 61.6445ZM30.7012 49.584L33.4471 48.3758L30.7012 49.584ZM27.5762 46.0195L26.0606 48.6086L26.0976 48.6302L26.1352 48.6508L27.5762 46.0195ZM16.248 37.5938H22.6934V31.5938H16.248V37.5938ZM22.6934 37.5938C25.0084 37.5938 27.1826 37.0615 29.0261 35.8001L25.638 30.8483C25.0075 31.2796 24.0892 31.5938 22.6934 31.5938V37.5938ZM29.0697 35.7698C30.8431 34.5097 32.1011 32.7802 32.8754 30.7155L27.2574 28.6087C26.8598 29.669 26.2949 30.3809 25.5944 30.8787L29.0697 35.7698ZM32.8754 30.7155C33.6129 28.7489 33.9453 26.5731 33.9453 24.2422H27.9453C27.9453 26.0128 27.6918 27.4503 27.2574 28.6087L32.8754 30.7155ZM33.9453 24.2422C33.9453 21.9872 33.6322 19.8871 32.9216 18.0062L27.3088 20.1266C27.705 21.1754 27.9453 22.5258 27.9453 24.2422H33.9453ZM32.9292 18.0265C32.2061 16.0699 31.0546 14.3977 29.4022 13.1827L25.8478 18.0166C26.409 18.4292 26.9176 19.0682 27.3013 20.1064L32.9292 18.0265ZM29.4366 13.2083C27.7201 11.908 25.6515 11.3789 23.4746 11.3789V17.3789C24.6832 17.3789 25.3815 17.6636 25.8134 17.9909L29.4366 13.2083ZM23.4746 11.3789C21.5702 11.3789 19.7805 11.8991 18.1672 12.9132L21.3602 17.993C22.0255 17.5749 22.7098 17.3789 23.4746 17.3789V11.3789ZM18.1672 12.9132C16.4875 13.969 15.2337 15.4737 14.3695 17.2883L19.7867 19.8679C20.2247 18.9482 20.7612 18.3696 21.3602 17.993L18.1672 12.9132ZM14.3818 17.2629C13.4907 19.0897 13.1016 21.1375 13.1016 23.3145H19.1016C19.1016 21.8456 19.3635 20.7358 19.7744 19.8934L14.3818 17.2629ZM16.1016 20.3145H3.60156V26.3145H16.1016V20.3145ZM6.60156 23.3145C6.60156 19.9269 7.34342 17.0952 8.73091 14.7205L3.55034 11.6936C1.55241 15.1131 0.601562 19.0197 0.601562 23.3145H6.60156ZM8.72569 14.7293C10.1789 12.2616 12.13 10.3666 14.6165 9.00035L11.7272 3.74184C8.28931 5.6308 5.55282 8.29313 3.55556 11.6847L8.72569 14.7293ZM14.6386 8.98812C17.1119 7.60196 19.9354 6.88086 23.1816 6.88086V0.880859C19.006 0.880859 15.1563 1.81992 11.7052 3.75407L14.6386 8.98812ZM23.1816 6.88086C26.7999 6.88086 29.8369 7.57042 32.3754 8.85328L35.0817 3.49828C31.5654 1.72125 27.5712 0.880859 23.1816 0.880859V6.88086ZM32.3869 8.85906C34.9006 10.1159 36.8356 11.966 38.2389 14.4758L43.4759 11.5476C41.4938 8.00278 38.6762 5.29553 35.0702 3.4925L32.3869 8.85906ZM38.2579 14.5093C39.6569 16.9377 40.4453 20.0984 40.4453 24.1445H46.4453C46.4453 19.3365 45.5084 15.0753 43.4569 11.5142L38.2579 14.5093ZM40.4453 24.1445C40.4453 25.9042 40.1138 27.6507 39.4302 29.4006L45.019 31.5837C45.963 29.167 46.4453 26.6817 46.4453 24.1445H40.4453ZM39.4156 29.4388C38.7784 31.1381 37.8035 32.7124 36.4573 34.1685L40.863 38.2416C42.7069 36.2472 44.1083 34.0129 45.0336 31.5456L39.4156 29.4388ZM36.4768 34.1477C35.1891 35.5142 33.5696 36.6395 31.5656 37.5024L33.9383 43.0133C36.6218 41.8579 38.9411 40.2814 40.8435 38.2625L36.4768 34.1477ZM31.5515 37.5085C29.6907 38.3209 27.4283 38.7715 24.6953 38.7715V44.7715C28.0822 44.7715 31.1908 44.2129 33.9524 43.0072L31.5515 37.5085ZM24.6953 38.7715H16.248V44.7715H24.6953V38.7715ZM19.248 41.7715V34.5938H13.248V41.7715H19.248ZM19.248 44.8477V37.8164H13.248V44.8477H19.248ZM16.248 40.8164H24.6953V34.8164H16.248V40.8164ZM24.6953 40.8164C27.9316 40.8164 30.5394 41.2418 32.5937 41.9986L34.668 36.3686C31.7744 35.3025 28.4251 34.8164 24.6953 34.8164V40.8164ZM32.6056 42.003C34.7461 42.7813 36.3591 43.8321 37.5498 45.0971L41.919 40.9849C39.9846 38.9297 37.5287 37.4088 34.6561 36.3642L32.6056 42.003ZM37.5711 45.1195C38.8478 46.4484 39.7691 47.9891 40.3468 49.775L46.0555 47.9281C45.201 45.2869 43.811 42.954 41.8977 40.9625L37.5711 45.1195ZM40.3593 49.8128C40.992 51.6834 41.3242 53.7638 41.3242 56.0781H47.3242C47.3242 53.1842 46.9077 50.4468 46.043 47.8904L40.3593 49.8128ZM41.3242 56.0781C41.3242 59.0749 40.8399 61.6383 39.9396 63.8209L45.4862 66.1088C46.7343 63.0831 47.3242 59.722 47.3242 56.0781H41.3242ZM39.9323 63.8385C39.0499 66.017 37.8025 67.8215 36.1935 69.2963L40.2479 73.7193C42.5452 71.6134 44.2925 69.056 45.4934 66.0911L39.9323 63.8385ZM36.1751 69.3134C34.5596 70.8194 32.6615 71.9808 30.4486 72.7931L32.5162 78.4256C35.4466 77.3499 38.0406 75.777 40.2663 73.7022L36.1751 69.3134ZM30.4688 72.7858C28.2888 73.5684 25.8688 73.9766 23.1816 73.9766V79.9766C26.4841 79.9766 29.598 79.4733 32.496 78.433L30.4688 72.7858ZM23.1816 73.9766C20.896 73.9766 18.6938 73.6204 16.562 72.9098L14.6646 78.6019C17.4156 79.5189 20.2589 79.9766 23.1816 79.9766V73.9766ZM16.6077 72.9255C14.5516 72.203 12.7154 71.1393 11.081 69.7265L7.15728 74.2657C9.364 76.1732 11.8573 77.616 14.6188 78.5862L16.6077 72.9255ZM11.1218 69.7624C9.58291 68.3827 8.32786 66.631 7.37704 64.4497L1.87687 66.8472C3.13959 69.744 4.87933 72.2241 7.11651 74.2298L11.1218 69.7624ZM7.39515 64.4921C6.50436 62.3596 6.01562 59.7724 6.01562 56.6641H0.015625C0.015625 60.3916 0.601105 63.794 1.85876 66.8048L7.39515 64.4921ZM3.01562 59.6641H15.5156V53.6641H3.01562V59.6641ZM12.5156 56.6641C12.5156 58.9434 12.9225 61.0885 13.812 63.0369L19.2701 60.5451C18.7924 59.4987 18.5156 58.2259 18.5156 56.6641H12.5156ZM13.8225 63.0597C14.6963 64.9321 15.934 66.5099 17.5677 67.6898L21.0807 62.8258C20.3707 62.313 19.7529 61.5796 19.2596 60.5224L13.8225 63.0597ZM17.5677 67.6898C19.2929 68.9358 21.2865 69.5273 23.4258 69.5273V63.5273C22.44 63.5273 21.6993 63.2726 21.0807 62.8258L17.5677 67.6898ZM23.4258 69.5273C25.6615 69.5273 27.7548 68.9711 29.5632 67.7337L26.1751 62.7819C25.5095 63.2373 24.6406 63.5273 23.4258 63.5273V69.5273ZM29.5332 67.754C31.3488 66.5436 32.6663 64.8455 33.5192 62.7984L27.9808 60.4907C27.5316 61.5686 26.9286 62.2793 26.205 62.7617L29.5332 67.754ZM33.5074 62.8263C34.3865 60.7752 34.7754 58.467 34.7754 55.9805H28.7754C28.7754 57.8559 28.4807 59.3238 27.9926 60.4628L33.5074 62.8263ZM34.7754 55.9805C34.7754 53.111 34.3915 50.5221 33.4471 48.3758L27.9552 50.7922C28.4431 51.901 28.7754 53.5765 28.7754 55.9805H34.7754ZM33.4471 48.3758C32.5039 46.2322 31.0443 44.4984 29.0171 43.3882L26.1352 48.6508C26.8424 49.0381 27.4661 49.6806 27.9552 50.7922L33.4471 48.3758ZM29.0917 43.4305C27.1984 42.3222 25.0189 41.8477 22.6934 41.8477V47.8477C24.209 47.8477 25.2847 48.1544 26.0606 48.6086L29.0917 43.4305ZM22.6934 41.8477H16.248V47.8477H22.6934V41.8477Z" fill="white" mask="url(#path-1-outside-1_106_8193)"/>
</svg>
