<svg width="51" height="78" viewBox="0 0 51 78" fill="none" xmlns="http://www.w3.org/2000/svg">
<mask id="path-1-outside-1_106_8196" maskUnits="userSpaceOnUse" x="0" y="0" width="51" height="78" fill="black">
<rect fill="white" width="51" height="78"/>
<path d="M47.2773 48.877V59.3262H3.86914L3.38086 51.2695L28.0879 3.90625H38L27.8926 23.2422L15.9297 48.877H47.2773ZM40.832 3.90625V75H28.2832V3.90625H40.832Z"/>
</mask>
<path d="M47.2773 48.877V59.3262H3.86914L3.38086 51.2695L28.0879 3.90625H38L27.8926 23.2422L15.9297 48.877H47.2773ZM40.832 3.90625V75H28.2832V3.90625H40.832Z" fill="black"/>
<path d="M47.2773 48.877H50.2773V45.877H47.2773V48.877ZM47.2773 59.3262V62.3262H50.2773V59.3262H47.2773ZM3.86914 59.3262L0.874635 59.5077L1.04545 62.3262H3.86914V59.3262ZM3.38086 51.2695L0.721007 49.882L0.335995 50.6201L0.386354 51.451L3.38086 51.2695ZM28.0879 3.90625V0.90625H26.2692L25.428 2.51874L28.0879 3.90625ZM38 3.90625L40.6587 5.29601L42.9533 0.90625H38V3.90625ZM27.8926 23.2422L25.2339 21.8524L25.2026 21.9123L25.174 21.9735L27.8926 23.2422ZM15.9297 48.877L13.2111 47.6083L11.2191 51.877H15.9297V48.877ZM40.832 3.90625H43.832V0.90625H40.832V3.90625ZM40.832 75V78H43.832V75H40.832ZM28.2832 75H25.2832V78H28.2832V75ZM28.2832 3.90625V0.90625H25.2832V3.90625H28.2832ZM44.2773 48.877V59.3262H50.2773V48.877H44.2773ZM47.2773 56.3262H3.86914V62.3262H47.2773V56.3262ZM6.86365 59.1447L6.37536 51.088L0.386354 51.451L0.874635 59.5077L6.86365 59.1447ZM6.04071 52.657L30.7477 5.29376L25.428 2.51874L0.721007 49.882L6.04071 52.657ZM28.0879 6.90625H38V0.90625H28.0879V6.90625ZM35.3413 2.51649L25.2339 21.8524L30.5513 24.632L40.6587 5.29601L35.3413 2.51649ZM25.174 21.9735L13.2111 47.6083L18.6482 50.1456L30.6111 24.5108L25.174 21.9735ZM15.9297 51.877H47.2773V45.877H15.9297V51.877ZM37.832 3.90625V75H43.832V3.90625H37.832ZM40.832 72H28.2832V78H40.832V72ZM31.2832 75V3.90625H25.2832V75H31.2832ZM28.2832 6.90625H40.832V0.90625H28.2832V6.90625Z" fill="white" mask="url(#path-1-outside-1_106_8196)"/>
</svg>
