<svg width="73" height="72" viewBox="0 0 73 72" fill="none" xmlns="http://www.w3.org/2000/svg">
<path d="M71.325 70.8033C71.1775 70.8036 71.032 70.7691 70.9003 70.7026C70.7686 70.6361 70.6545 70.5394 70.5672 70.4205C69.5906 69.07 68.199 68.0762 66.6047 67.5908C63.3672 66.5799 59.675 67.5611 56.4188 68.4267C55.9297 68.5564 55.4516 68.683 54.9828 68.8017C51.2397 69.7313 47.4236 70.3377 43.5766 70.6142C43.4535 70.6236 43.3297 70.6086 43.2124 70.5701C43.0951 70.5316 42.9865 70.4704 42.8929 70.3899C42.7992 70.3095 42.7223 70.2113 42.6666 70.1012C42.6108 69.991 42.5773 69.8709 42.568 69.7478C42.5587 69.6247 42.5737 69.501 42.6122 69.3836C42.6506 69.2663 42.7119 69.1577 42.7923 69.0641C42.8728 68.9704 42.9709 68.8935 43.0811 68.8378C43.1912 68.7821 43.3113 68.7486 43.4344 68.7392C47.1723 68.4714 50.8802 67.8828 54.5172 66.9799C54.9782 66.8627 55.4547 66.7377 55.9235 66.6095C59.4266 65.672 63.3969 64.6236 67.1516 65.797C69.1296 66.3991 70.8561 67.6322 72.0672 69.308C72.2139 69.5084 72.2751 69.7589 72.2373 70.0044C72.1995 70.2499 72.0659 70.4703 71.8657 70.6173C71.7096 70.7348 71.5203 70.7998 71.325 70.8033Z" fill="#F7AE12"/>
<path d="M35.9656 0.771973C16.511 0.771973 0.739075 16.5438 0.739075 36.0001C0.739075 55.4563 16.511 71.2282 35.9656 71.2282C55.4203 71.2282 71.1875 55.4563 71.1875 36.0001C71.1875 16.5438 55.4219 0.771973 35.9656 0.771973ZM9.54689 30.4829C9.54658 29.2417 9.91438 28.0283 10.6038 26.9961C11.2932 25.964 12.2732 25.1594 13.4198 24.6843C14.5665 24.2092 15.8283 24.0848 17.0457 24.3268C18.2631 24.5689 19.3813 25.1666 20.259 26.0443C21.1367 26.9219 21.7343 28.0402 21.9764 29.2575C22.2185 30.4749 22.0941 31.7367 21.6189 32.8834C21.1438 34.0301 20.3393 35.0101 19.3071 35.6995C18.275 36.3889 17.0615 36.7567 15.8203 36.7563C14.1566 36.7559 12.5612 36.0949 11.3848 34.9184C10.2084 33.742 9.5473 32.1466 9.54689 30.4829ZM23.4172 60.1298C22.1761 60.1298 20.9629 59.7618 19.931 59.0723C18.8991 58.3828 18.0948 57.4027 17.6199 56.2561C17.1449 55.1095 17.0207 53.8478 17.2628 52.6306C17.5049 51.4134 18.1025 50.2953 18.9801 49.4177C19.8577 48.5401 20.9758 47.9425 22.193 47.7004C23.4102 47.4582 24.6719 47.5825 25.8185 48.0574C26.9651 48.5324 27.9452 49.3367 28.6347 50.3686C29.3242 51.4005 29.6922 52.6137 29.6922 53.8548C29.6922 55.519 29.0311 57.1151 27.8543 58.2919C26.6775 59.4687 25.0814 60.1298 23.4172 60.1298ZM35.9656 10.4704C37.2068 10.4701 38.4201 10.8379 39.4523 11.5272C40.4844 12.2165 41.2889 13.1964 41.7641 14.343C42.2393 15.4896 42.3638 16.7513 42.1218 17.9686C41.8799 19.186 41.2824 20.3042 40.4049 21.182C39.5273 22.0597 38.4092 22.6575 37.192 22.8997C35.9747 23.142 34.7129 23.0178 33.5662 22.5429C32.4195 22.068 31.4394 21.2637 30.7498 20.2318C30.0603 19.1998 29.6922 17.9866 29.6922 16.7454C29.6922 15.0814 30.3531 13.4856 31.5296 12.3089C32.706 11.1321 34.3017 10.4708 35.9656 10.4704ZM35.9656 40.5438C35.067 40.5435 34.1887 40.2768 33.4417 39.7773C32.6947 39.2779 32.1125 38.5681 31.7689 37.7378C31.4252 36.9075 31.3355 35.994 31.5109 35.1127C31.6864 34.2314 32.1193 33.4219 32.7548 32.7866C33.3904 32.1513 34.2 31.7187 35.0813 31.5435C35.9627 31.3683 36.8762 31.4584 37.7064 31.8024C38.5365 32.1463 39.2461 32.7287 39.7453 33.4759C40.2445 34.2231 40.511 35.1015 40.511 36.0001C40.511 36.5969 40.3934 37.1879 40.1649 37.7393C39.9365 38.2906 39.6017 38.7916 39.1796 39.2136C38.7575 39.6355 38.2564 39.9702 37.7049 40.1984C37.1535 40.4267 36.5625 40.544 35.9656 40.5438ZM48.5156 60.8267C47.2745 60.8267 46.0612 60.4586 45.0293 59.769C43.9973 59.0794 43.193 58.0993 42.7181 56.9526C42.2433 55.8059 42.1191 54.5442 42.3613 53.3269C42.6036 52.1096 43.2014 50.9915 44.0791 50.114C44.9568 49.2365 46.0751 48.639 47.2924 48.397C48.5097 48.1551 49.7715 48.2796 50.9181 48.7548C52.0646 49.2299 53.0446 50.0345 53.7339 51.0666C54.4232 52.0987 54.791 53.3121 54.7906 54.5532C54.7906 55.3772 54.6283 56.1931 54.313 56.9543C53.9976 57.7156 53.5354 58.4072 52.9526 58.9898C52.3699 59.5723 51.6782 60.0344 50.9169 60.3496C50.1556 60.6647 49.3396 60.8269 48.5156 60.8267ZM56.8516 36.1142C55.6104 36.1142 54.3972 35.7461 53.3652 35.0565C52.3333 34.3669 51.529 33.3868 51.0541 32.2401C50.5792 31.0934 50.455 29.8317 50.6973 28.6144C50.9395 27.3971 51.5373 26.279 52.415 25.4015C53.2928 24.524 54.411 23.9265 55.6283 23.6845C56.8457 23.4426 58.1074 23.5671 59.254 24.0423C60.4006 24.5174 61.3805 25.322 62.0698 26.3541C62.7591 27.3862 63.1269 28.5996 63.1266 29.8407C63.1266 30.6647 62.9643 31.4806 62.6489 32.2418C62.3335 33.0031 61.8713 33.6947 61.2886 34.2773C60.7059 34.8598 60.0141 35.3219 59.2528 35.6371C58.4915 35.9522 57.6755 36.1144 56.8516 36.1142Z" fill="#F7AE12"/>
</svg>
