<svg width="75" height="64" viewBox="0 0 75 64" fill="none" xmlns="http://www.w3.org/2000/svg">
<path d="M73.9811 12.5117C72.0678 2.74902 58.7824 -2.90231 48.4756 1.82258C44.2717 3.67637 40.6497 6.63528 37.9949 10.3851C37.9442 10.4713 37.8718 10.5427 37.785 10.5923C37.6982 10.6419 37.6 10.668 37.5 10.668C37.4 10.668 37.3017 10.6419 37.2149 10.5923C37.1281 10.5427 37.0558 10.4713 37.0051 10.3851C34.3503 6.63528 30.728 3.67584 26.5241 1.82205C16.2084 -2.90691 2.93132 2.75327 1.0188 12.5117C-3.90712 37.6464 33.4324 61.4563 37.1959 63.7846C37.2863 63.8436 37.392 63.8749 37.5 63.8749C37.6079 63.8749 37.7136 63.8436 37.8041 63.7846C41.5675 61.4563 78.9071 37.6464 73.9811 12.5117ZM37.5 48.0922C34.4577 48.0922 31.4837 47.1901 28.9541 45.4999C26.4246 43.8097 24.453 41.4073 23.2888 38.5966C22.1246 35.7859 21.8199 32.6931 22.4135 29.7093C23.007 26.7254 24.472 23.9846 26.6232 21.8334C28.7744 19.6822 31.5152 18.2172 34.4991 17.6236C37.4829 17.0301 40.5757 17.3347 43.3864 18.499C46.1971 19.6632 48.5995 21.6348 50.2897 24.1643C51.9799 26.6939 52.882 29.6679 52.882 32.7102C52.8774 36.7883 51.2553 40.6981 48.3716 43.5818C45.4879 46.4655 41.5781 48.0876 37.5 48.0922Z" fill="#F7AE12"/>
</svg>
