<svg width="81" height="80" viewBox="0 0 81 80" fill="none" xmlns="http://www.w3.org/2000/svg">
<path d="M65.3969 2.65625H15.6031C13.3595 2.65878 11.2085 3.55117 9.62202 5.13765C8.03555 6.72413 7.14315 8.87513 7.14062 11.1188V38.475C7.14316 40.7186 8.03555 42.8696 9.62203 44.4561C11.2085 46.0426 13.3595 46.935 15.6031 46.9375H15.8297V43.575C15.8299 42.9456 16.0335 42.3331 16.4101 41.8289C16.7867 41.3246 17.3162 40.9555 17.9196 40.7767C18.5231 40.5978 19.1682 40.6188 19.7587 40.8364C20.3493 41.054 20.8538 41.4566 21.1969 41.9843L24.418 46.9375H26.0516V43.1875C26.0523 42.5164 26.3193 41.873 26.7938 41.3985C27.2683 40.9239 27.9117 40.657 28.5828 40.6563C29.254 40.6566 29.8976 40.9234 30.3722 41.3981C30.8469 41.8727 31.1137 42.5163 31.1141 43.1875V46.9375H33.075V43.2359C33.0758 42.552 33.3478 41.8963 33.8314 41.4127C34.3151 40.9291 34.9708 40.657 35.6547 40.6563H41.6219C42.2764 40.657 42.9039 40.9173 43.3667 41.3801C43.8296 41.843 44.0899 42.4705 44.0906 43.125V43.1813C44.0899 43.8358 43.8296 44.4633 43.3667 44.9261C42.9039 45.3889 42.2764 45.6493 41.6219 45.65H38.1141V46.8016H41.6219C41.897 46.801 42.1702 46.847 42.43 46.9375H45.103L44.3622 43.6681C44.2907 43.3522 44.2821 43.0252 44.3369 42.706C44.3918 42.3867 44.5089 42.0814 44.6817 41.8075C44.8546 41.5335 45.0797 41.2962 45.3442 41.1093C45.6087 40.9223 45.9074 40.7892 46.2233 40.7177C46.5393 40.6462 46.8662 40.6376 47.1854 40.6924C47.5047 40.7472 47.81 40.8644 48.084 41.0372C48.3579 41.2101 48.5952 41.4352 48.7822 41.6997C48.9691 41.9642 49.1022 42.2629 49.1737 42.5788L50.1613 46.9375H50.9295L52.1378 42.6208C52.2974 42.0566 52.6364 41.5598 53.1035 41.2053C53.5705 40.8509 54.1403 40.6582 54.7266 40.6563C55.313 40.6542 55.8837 40.8464 56.3495 41.2028C56.8131 41.5549 57.1507 42.0472 57.312 42.6066L58.5412 46.9375H59.3213L60.2978 42.5839C60.4304 41.9917 60.7767 41.4692 61.2705 41.1163C61.7643 40.7635 62.3709 40.6051 62.9741 40.6715C63.5774 40.7379 64.1349 41.0244 64.5401 41.4762C64.9454 41.9281 65.1697 42.5134 65.1703 43.1203C65.17 43.3019 65.1502 43.4829 65.111 43.6603L64.3724 46.9375H65.3969C67.6405 46.935 69.7915 46.0426 71.378 44.4561C72.9644 42.8696 73.8568 40.7186 73.8594 38.475V11.1188C73.8568 8.87513 72.9645 6.72413 71.378 5.13765C69.7915 3.55117 67.6405 2.65878 65.3969 2.65625ZM50.1366 28.4183L34.6941 37.3316C34.0584 37.6985 33.3374 37.8917 32.6034 37.8916C31.8695 37.8915 31.1485 37.6983 30.5129 37.3313C29.8773 36.9643 29.3495 36.4364 28.9825 35.8008C28.6156 35.1652 28.4224 34.4442 28.4224 33.7102V15.8836C28.4224 15.1496 28.6156 14.4286 28.9825 13.793C29.3495 13.1574 29.8773 12.6295 30.5129 12.2625C31.1485 11.8955 31.8695 11.7023 32.6034 11.7022C33.3374 11.7021 34.0584 11.8953 34.6941 12.2622L50.1366 21.1755C50.7723 21.5424 51.3003 22.0703 51.6674 22.706C52.0344 23.3417 52.2277 24.0628 52.2277 24.7969C52.2277 25.531 52.0344 26.2521 51.6673 26.8878C51.3003 27.5235 50.7723 28.0514 50.1366 28.4183Z" fill="#F7AE12"/>
<path d="M7.7918 61.1204H7.80325C8.12134 61.1203 8.43163 61.2189 8.69142 61.4024C8.95121 61.586 9.14774 61.8455 9.25399 62.1454L12.5786 71.5295C12.6173 71.6386 12.6888 71.7332 12.7833 71.8001C12.8778 71.867 12.9907 71.9031 13.1065 71.9033C13.2223 71.9036 13.3354 71.8681 13.4302 71.8016C13.525 71.7351 13.5969 71.6409 13.6361 71.5319L17.0121 62.1387C17.1194 61.8405 17.316 61.5826 17.5753 61.4004C17.8345 61.2181 18.1437 61.1203 18.4606 61.1204C18.7075 61.1203 18.9509 61.1797 19.17 61.2935C19.3892 61.4073 19.5778 61.5722 19.7198 61.7743C19.8618 61.9763 19.953 62.2096 19.9859 62.4543C20.0187 62.6991 19.9922 62.9482 19.9085 63.1805L15.1373 76.419C14.9851 76.8411 14.7065 77.206 14.3393 77.4639C13.9721 77.7218 13.5344 77.8602 13.0857 77.8602C12.6349 77.8602 12.1953 77.7206 11.8272 77.4605C11.4591 77.2004 11.1806 76.8327 11.03 76.4079L6.34107 63.1727C6.25886 62.9405 6.23358 62.6921 6.26733 62.4481C6.30108 62.2042 6.39288 61.972 6.53503 61.7709C6.67717 61.5698 6.8655 61.4058 7.08419 61.2926C7.30288 61.1794 7.54555 61.1203 7.7918 61.1204Z" fill="#F7AE12"/>
<path d="M24.5609 61.1204C24.7687 61.1203 24.9744 61.1612 25.1664 61.2407C25.3583 61.3202 25.5327 61.4367 25.6796 61.5836C25.8266 61.7305 25.9431 61.9048 26.0227 62.0968C26.1022 62.2887 26.1431 62.4944 26.1432 62.7022V76.2784C26.1431 76.6979 25.9764 77.1003 25.6796 77.3969C25.3829 77.6936 24.9805 77.8602 24.5609 77.8602C24.3532 77.8602 24.1475 77.8193 23.9555 77.7398C23.7636 77.6603 23.5891 77.5438 23.4422 77.397C23.2953 77.2501 23.1787 77.0757 23.0992 76.8838C23.0197 76.6918 22.9787 76.4861 22.9787 76.2784V62.7022C22.9788 62.2826 23.1455 61.8802 23.4422 61.5836C23.7389 61.2869 24.1414 61.1203 24.5609 61.1204Z" fill="#F7AE12"/>
<path d="M29.7402 62.2015C29.7403 61.9147 29.8542 61.6397 30.057 61.437C30.2598 61.2342 30.5349 61.1203 30.8216 61.1204H33.5162C35.95 61.1204 37.7583 61.4219 38.9411 62.0251C40.1239 62.6282 41.0982 63.6087 41.864 64.9668C42.6299 66.3249 43.0128 67.9105 43.0128 69.7235C43.0263 70.939 42.8083 72.1459 42.3702 73.2798C41.9843 74.2967 41.3784 75.2157 40.5959 75.9711C39.904 76.6467 39.0651 77.1531 38.145 77.4505C37.2655 77.7236 35.7415 77.8602 33.5731 77.8602H30.8215C30.5348 77.8602 30.2598 77.7463 30.057 77.5436C29.8542 77.3409 29.7402 77.0659 29.7402 76.7791L29.7402 62.2015ZM32.9047 65.2739V73.6724C32.9048 73.9591 33.0187 74.2341 33.2215 74.4369C33.4243 74.6396 33.6993 74.7535 33.9861 74.7535H34.3845C35.8415 74.7535 36.8983 74.5864 37.5547 74.2523C38.2111 73.9181 38.748 73.3561 39.1654 72.5662C39.5826 71.7764 39.7913 70.8042 39.7914 69.6497C39.7914 67.8727 39.2944 66.4943 38.3003 65.5144C37.4047 64.6336 35.9667 64.1931 33.9861 64.1929C33.6994 64.1929 33.4243 64.3068 33.2215 64.5095C33.0187 64.7122 32.9048 64.9872 32.9047 65.2739Z" fill="#F7AE12"/>
<path d="M47.576 61.1204H53.6729C54.0789 61.1203 54.4683 61.2815 54.7554 61.5686C55.0425 61.8556 55.2038 62.245 55.2039 62.651V62.7079C55.2039 62.9089 55.1642 63.1079 55.0873 63.2937C55.0103 63.4794 54.8975 63.6481 54.7554 63.7902C54.6132 63.9324 54.4444 64.0451 54.2587 64.122C54.073 64.1989 53.8739 64.2385 53.6729 64.2385H49.9584C49.7646 64.2384 49.5788 64.3154 49.4418 64.4523C49.3048 64.5893 49.2279 64.7751 49.2278 64.9688V66.5352C49.2278 66.6311 49.2467 66.7261 49.2835 66.8147C49.3202 66.9033 49.374 66.9838 49.4418 67.0516C49.5097 67.1194 49.5902 67.1732 49.6788 67.2099C49.7674 67.2466 49.8624 67.2655 49.9584 67.2655H53.6729C53.8739 67.2655 54.073 67.305 54.2587 67.3819C54.4444 67.4589 54.6132 67.5716 54.7554 67.7137C54.8975 67.8558 55.0103 68.0246 55.0873 68.2103C55.1642 68.396 55.2039 68.5951 55.2039 68.7961C55.2039 68.9971 55.1642 69.1962 55.0873 69.3819C55.0103 69.5676 54.8975 69.7363 54.7554 69.8785C54.6132 70.0206 54.4444 70.1333 54.2587 70.2102C54.073 70.2871 53.8739 70.3267 53.6729 70.3267H49.9584C49.7646 70.3267 49.5788 70.4036 49.4418 70.5406C49.3048 70.6775 49.2279 70.8633 49.2278 71.057V74.0004C49.2278 74.0963 49.2467 74.1913 49.2835 74.2799C49.3202 74.3685 49.374 74.449 49.4418 74.5168C49.5097 74.5846 49.5902 74.6384 49.6788 74.6751C49.7674 74.7118 49.8624 74.7307 49.9584 74.7307H53.6729C53.8739 74.7307 54.073 74.7703 54.2587 74.8472C54.4444 74.9241 54.6132 75.0368 54.7554 75.1789C54.8975 75.3211 55.0103 75.4898 55.0873 75.6755C55.1642 75.8612 55.2039 76.0603 55.2039 76.2613V76.3296C55.2038 76.7356 55.0425 77.1249 54.7554 77.4119C54.4683 77.699 54.0789 77.8602 53.6729 77.8602H47.576C47.1749 77.8602 46.7902 77.7009 46.5065 77.4173C46.2229 77.1338 46.0635 76.7491 46.0634 76.348V62.6326C46.0634 62.4339 46.1026 62.2373 46.1786 62.0538C46.2546 61.8703 46.3661 61.7036 46.5065 61.5632C46.647 61.4228 46.8137 61.3114 46.9972 61.2354C47.1807 61.1594 47.3774 61.1203 47.576 61.1204Z" fill="#F7AE12"/>
<path d="M66.0804 60.6995C68.4495 60.6995 70.4865 61.5568 72.1913 63.2713C73.8962 64.9859 74.7486 67.076 74.7485 69.5416C74.7485 71.9845 73.9075 74.0519 72.2255 75.7437C71.4336 76.564 70.4814 77.2125 69.4282 77.6491C68.3749 78.0857 67.2431 78.3009 66.1031 78.2814C63.5896 78.2814 61.5013 77.4127 59.8384 75.6754C58.6205 74.4419 57.7943 72.876 57.4634 71.1744C57.1325 69.4729 57.3118 67.7115 57.9787 66.1115C58.6456 64.5115 59.7703 63.1442 61.2117 62.1813C62.6532 61.2184 64.347 60.7029 66.0804 60.6995ZM66.0462 63.8175C65.3184 63.8016 64.5951 63.9369 63.9223 64.2151C63.2495 64.4933 62.6418 64.9082 62.1378 65.4335C61.0818 66.5108 60.5539 67.8802 60.554 69.5416C60.554 71.3927 61.2187 72.857 62.5481 73.9343C63.5457 74.7638 64.8058 75.2115 66.1032 75.1974C66.8256 75.2081 67.5423 75.0678 68.2075 74.7856C68.8726 74.5035 69.4715 74.0856 69.9659 73.5587C71.0295 72.4663 71.5612 71.1197 71.5612 69.5189C71.5776 68.7714 71.4438 68.0282 71.1678 67.3333C70.8918 66.6384 70.4792 66.0059 69.9545 65.4733C69.4546 64.94 68.8486 64.5172 68.1755 64.2321C67.5024 63.9469 66.7771 63.8057 66.0462 63.8175Z" fill="#F7AE12"/>
<path d="M18.7489 41.5942C19.079 41.5942 19.4039 41.6767 19.6941 41.8341C19.9843 41.9915 20.2306 42.2189 20.4106 42.4956L26.4514 51.7836C26.4857 51.8365 26.5362 51.8768 26.5954 51.8986C26.6545 51.9204 26.7192 51.9225 26.7796 51.9046C26.8401 51.8867 26.8931 51.8497 26.9308 51.7992C26.9685 51.7486 26.9889 51.6873 26.9889 51.6242V43.1875C26.9889 42.7649 27.1568 42.3596 27.4557 42.0608C27.7546 41.7621 28.1599 41.5942 28.5825 41.5943C29.0051 41.5942 29.4104 41.7621 29.7092 42.0608C30.0081 42.3596 30.176 42.7649 30.176 43.1875V56.3462C30.176 56.6073 30.1246 56.8658 30.0246 57.107C29.9247 57.3482 29.7782 57.5674 29.5936 57.7519C29.4089 57.9365 29.1897 58.0829 28.9485 58.1828C28.7073 58.2827 28.4488 58.3341 28.1877 58.3341C27.8568 58.3341 27.5311 58.2515 27.2402 58.0939C26.9493 57.9362 26.7023 57.7085 26.5216 57.4312L20.4914 48.177C20.457 48.1242 20.4065 48.084 20.3474 48.0622C20.2882 48.0405 20.2237 48.0384 20.1633 48.0564C20.1029 48.0743 20.0499 48.1113 20.0122 48.1618C19.9745 48.2122 19.9541 48.2736 19.9541 48.3366V56.7409C19.9541 57.1635 19.7861 57.5687 19.4873 57.8675C19.1884 58.1663 18.7831 58.3341 18.3605 58.3341C18.1513 58.3341 17.9441 58.2929 17.7507 58.2128C17.5574 58.1328 17.3817 58.0155 17.2337 57.8675C17.0858 57.7196 16.9684 57.5439 16.8883 57.3506C16.8082 57.1573 16.7669 56.9501 16.7669 56.7409V43.5757C16.7669 43.3155 16.8182 43.0578 16.9178 42.8174C17.0175 42.5769 17.1635 42.3585 17.3475 42.1745C17.5316 41.9905 17.7501 41.8445 17.9905 41.745C18.231 41.6454 18.4887 41.5942 18.7489 41.5942Z" fill="#F7AE12"/>
<path d="M35.6545 41.5942H41.6216C42.0276 41.5942 42.417 41.7554 42.7041 42.0425C42.9913 42.3295 43.1526 42.7188 43.1526 43.1248V43.1817C43.1526 43.3828 43.113 43.5818 43.036 43.7675C42.9591 43.9532 42.8463 44.122 42.7041 44.2641C42.562 44.4062 42.3932 44.519 42.2075 44.5959C42.0217 44.6728 41.8227 44.7124 41.6216 44.7123H37.8572C37.7679 44.7123 37.6794 44.7299 37.5968 44.7641C37.5142 44.7983 37.4392 44.8484 37.376 44.9116C37.3128 44.9748 37.2626 45.0498 37.2284 45.1324C37.1942 45.2149 37.1766 45.3034 37.1766 45.3928V47.0589C37.1766 47.1483 37.1942 47.2368 37.2284 47.3194C37.2626 47.4019 37.3128 47.4769 37.376 47.5401C37.4392 47.6033 37.5142 47.6534 37.5968 47.6876C37.6794 47.7218 37.7679 47.7394 37.8572 47.7394H41.6216C41.8227 47.7394 42.0217 47.7789 42.2075 47.8558C42.3932 47.9327 42.562 48.0455 42.7041 48.1876C42.8463 48.3297 42.9591 48.4985 43.036 48.6842C43.113 48.8699 43.1526 49.0689 43.1526 49.27C43.1526 49.471 43.113 49.6701 43.036 49.8558C42.9591 50.0415 42.8463 50.2102 42.7041 50.3524C42.562 50.4945 42.3932 50.6072 42.2075 50.6841C42.0217 50.761 41.8227 50.8006 41.6216 50.8006H37.8572C37.7679 50.8006 37.6794 50.8181 37.5968 50.8523C37.5142 50.8865 37.4392 50.9366 37.376 50.9998C37.3128 51.063 37.2626 51.138 37.2284 51.2206C37.1942 51.3032 37.1766 51.3916 37.1766 51.481V54.5241C37.1766 54.6135 37.1942 54.702 37.2284 54.7846C37.2626 54.8671 37.3128 54.9421 37.376 55.0053C37.4392 55.0685 37.5142 55.1186 37.5968 55.1528C37.6794 55.187 37.7679 55.2046 37.8572 55.2046H41.6216C41.8227 55.2046 42.0217 55.2441 42.2075 55.321C42.3932 55.3979 42.562 55.5107 42.7041 55.6528C42.8463 55.7949 42.9591 55.9637 43.036 56.1494C43.113 56.3351 43.1526 56.5341 43.1526 56.7352V56.8035C43.1526 57.2094 42.9913 57.5988 42.7041 57.8858C42.417 58.1729 42.0276 58.3341 41.6216 58.3341H35.6545C35.2189 58.3341 34.8013 58.1611 34.4933 57.8532C34.1853 57.5453 34.0122 57.1277 34.0121 56.6921V43.2361C34.0122 42.8006 34.1853 42.383 34.4933 42.0751C34.8013 41.7672 35.2189 41.5942 35.6545 41.5942Z" fill="#F7AE12"/>
<path d="M46.7682 41.5943C47.1151 41.5943 47.4516 41.7122 47.7226 41.9286C47.9936 42.1451 48.1829 42.4472 48.2595 42.7855L50.1836 51.2833C50.1963 51.3394 50.2274 51.3897 50.2719 51.4261C50.3164 51.4626 50.3718 51.4831 50.4293 51.4846C50.4868 51.486 50.5431 51.4682 50.5894 51.434C50.6356 51.3998 50.6691 51.3512 50.6846 51.2958L53.0412 42.8727C53.1442 42.5049 53.3646 42.1808 53.669 41.95C53.9733 41.7192 54.3448 41.5943 54.7268 41.5943C55.1076 41.5943 55.478 41.7184 55.7819 41.948C56.0858 42.1776 56.3065 42.5 56.4105 42.8663L58.805 51.3005C58.8207 51.3558 58.8544 51.4043 58.9008 51.4383C58.9471 51.4723 59.0035 51.4899 59.0609 51.4883C59.1184 51.4867 59.1737 51.4659 59.218 51.4294C59.2624 51.3928 59.2933 51.3425 59.3059 51.2865L61.2117 42.7883C61.2878 42.4494 61.477 42.1465 61.7481 41.9295C62.0193 41.7124 62.3563 41.5942 62.7036 41.5942C62.9329 41.5942 63.1592 41.6457 63.3659 41.7451C63.5726 41.8444 63.7542 41.9889 63.8975 42.1679C64.0407 42.347 64.1418 42.556 64.1933 42.7794C64.2448 43.0028 64.2454 43.235 64.1951 43.4586L61.1844 56.8179C61.0873 57.2484 60.8467 57.633 60.502 57.9085C60.1574 58.1841 59.7292 58.3342 59.288 58.3341H59.2528C58.8302 58.3342 58.4191 58.1965 58.0817 57.9419C57.7444 57.6873 57.4992 57.3298 57.3833 56.9233L54.9516 48.3921C54.9361 48.3379 54.9034 48.2903 54.8584 48.2565C54.8135 48.2226 54.7587 48.2043 54.7024 48.2045C54.6461 48.2046 54.5913 48.2231 54.5465 48.2572C54.5017 48.2913 54.4692 48.3391 54.4541 48.3933L52.0701 56.9142C51.9557 57.3227 51.7109 57.6826 51.3728 57.939C51.0348 58.1954 50.6222 58.3341 50.198 58.3341C49.7571 58.3342 49.3292 58.1843 48.9847 57.9091C48.6402 57.634 48.3994 57.2498 48.302 56.8198L45.277 43.4604C45.2264 43.2366 45.2268 43.0043 45.2782 42.7807C45.3296 42.5571 45.4306 42.348 45.5738 42.1687C45.7171 41.9895 45.8988 41.8448 46.1055 41.7454C46.3123 41.6459 46.5388 41.5943 46.7682 41.5943Z" fill="#F7AE12"/>
</svg>
